# This file uses centimeters as units for non-parametric coordinates.

mtllib bucket.mtl
g default
v 1.907594 1.782066 -0.619815
v 1.622696 1.782066 -1.178958
v 1.178958 1.782066 -1.622696
v 0.619815 1.782066 -1.907594
v 0.000000 1.782066 -2.005762
v -0.619815 1.782066 -1.907593
v -1.178957 1.782066 -1.622696
v -1.622696 1.782066 -1.178957
v -1.907593 1.782066 -0.619815
v -2.005762 1.782066 0.000000
v -1.907593 1.782066 0.619815
v -1.622696 1.782066 1.178957
v -1.178957 1.782066 1.622695
v -0.619815 1.782066 1.907593
v -0.000000 1.782066 2.005762
v 0.619814 1.782066 1.907593
v 1.178957 1.782066 1.622695
v 1.622695 1.782066 1.178957
v 1.907593 1.782066 0.619814
v 2.005761 1.782066 0.000000
v 1.907594 3.782066 -0.619815
v 1.622696 3.782066 -1.178958
v 1.178958 3.782066 -1.622696
v 0.619815 3.782066 -1.907594
v 0.000000 3.782066 -2.005762
v -0.619815 3.782066 -1.907593
v -1.178957 3.782066 -1.622696
v -1.622696 3.782066 -1.178957
v -1.907593 3.782066 -0.619815
v -2.005762 3.782066 0.000000
v -1.907593 3.782066 0.619815
v -1.622696 3.782066 1.178957
v -1.178957 3.782066 1.622695
v -0.619815 3.782066 1.907593
v -0.000000 3.782066 2.005762
v 0.619814 3.782066 1.907593
v 1.178957 3.782066 1.622695
v 1.622695 3.782066 1.178957
v 1.907593 3.782066 0.619814
v 2.005761 3.782066 0.000000
v 0.000000 1.782066 0.000000
v 0.000000 3.782066 0.000000
v 1.622695 3.039757 1.178957
v 1.178957 3.039757 1.622695
v 0.619814 3.039757 1.907593
v -0.000000 3.039757 2.005762
v -0.619815 3.039757 1.907593
v -1.178957 3.039757 1.622696
v -1.622696 3.039757 1.178957
v -1.907593 3.039757 0.619815
v -2.005762 3.039757 0.000000
v -1.907593 3.039757 -0.619815
v -1.622696 3.039757 -1.178957
v -1.178957 3.039757 -1.622696
v -0.619815 3.039757 -1.907593
v 0.000000 3.039757 -2.005762
v 0.619815 3.039757 -1.907594
v 1.178958 3.039757 -1.622696
v 1.622696 3.039757 -1.178958
v 1.907594 3.039757 -0.619815
v 2.005761 3.039757 0.000000
v 1.907593 3.039757 0.619814
v 1.622695 2.575741 1.178957
v 1.178957 2.575741 1.622695
v 0.619814 2.575741 1.907593
v -0.000000 2.575741 2.005762
v -0.619815 2.575741 1.907593
v -1.178957 2.575741 1.622696
v -1.622696 2.575741 1.178957
v -1.907593 2.575741 0.619815
v -2.005762 2.575741 0.000000
v -1.907593 2.575741 -0.619815
v -1.622696 2.575741 -1.178957
v -1.178957 2.575741 -1.622696
v -0.619815 2.575741 -1.907593
v 0.000000 2.575741 -2.005762
v 0.619815 2.575741 -1.907594
v 1.178958 2.575741 -1.622696
v 1.622696 2.575741 -1.178958
v 1.907594 2.575741 -0.619815
v 2.005761 2.575741 0.000000
v 1.907593 2.575741 0.619814
v 0.869134 2.660979 0.588422
v 0.588422 2.660979 0.869134
v 0.869134 2.954519 0.588422
v 0.588422 2.954519 0.869134
vt 0.648603 0.107966
vt 0.626409 0.064408
vt 0.591842 0.029841
vt 0.548284 0.007647
vt 0.500000 -0.000000
vt 0.451716 0.007647
vt 0.408159 0.029841
vt 0.373591 0.064409
vt 0.351397 0.107966
vt 0.343750 0.156250
vt 0.351397 0.204534
vt 0.373591 0.248091
vt 0.408159 0.282659
vt 0.451716 0.304853
vt 0.500000 0.312500
vt 0.548284 0.304853
vt 0.591841 0.282659
vt 0.626409 0.248091
vt 0.648603 0.204534
vt 0.656250 0.156250
vt 0.375000 0.312500
vt 0.387500 0.312500
vt 0.400000 0.312500
vt 0.412500 0.312500
vt 0.425000 0.312500
vt 0.437500 0.312500
vt 0.450000 0.312500
vt 0.462500 0.312500
vt 0.475000 0.312500
vt 0.487500 0.312500
vt 0.500000 0.312500
vt 0.512500 0.312500
vt 0.525000 0.312500
vt 0.537500 0.312500
vt 0.550000 0.312500
vt 0.562500 0.312500
vt 0.575000 0.312500
vt 0.587500 0.312500
vt 0.600000 0.312500
vt 0.612500 0.312500
vt 0.625000 0.312500
vt 0.375000 0.687500
vt 0.387500 0.687500
vt 0.400000 0.687500
vt 0.412500 0.687500
vt 0.425000 0.687500
vt 0.437500 0.687500
vt 0.450000 0.687500
vt 0.462500 0.687500
vt 0.475000 0.687500
vt 0.487500 0.687500
vt 0.500000 0.687500
vt 0.512500 0.687500
vt 0.525000 0.687500
vt 0.537500 0.687500
vt 0.550000 0.687500
vt 0.562500 0.687500
vt 0.575000 0.687500
vt 0.587500 0.687500
vt 0.600000 0.687500
vt 0.612500 0.687500
vt 0.625000 0.687500
vt 0.648603 0.795466
vt 0.626409 0.751908
vt 0.591842 0.717341
vt 0.548284 0.695147
vt 0.500000 0.687500
vt 0.451716 0.695147
vt 0.408159 0.717341
vt 0.373591 0.751909
vt 0.351397 0.795466
vt 0.343750 0.843750
vt 0.351397 0.892034
vt 0.373591 0.935591
vt 0.408159 0.970159
vt 0.451716 0.992353
vt 0.500000 1.000000
vt 0.548284 0.992353
vt 0.591841 0.970159
vt 0.626409 0.935591
vt 0.648603 0.892034
vt 0.656250 0.843750
vt 0.500000 0.156250
vt 0.500000 0.843750
vt 0.587500 0.548317
vt 0.575000 0.548317
vt 0.562500 0.548317
vt 0.550000 0.548317
vt 0.537500 0.548317
vt 0.525000 0.548317
vt 0.512500 0.548317
vt 0.500000 0.548317
vt 0.487500 0.548317
vt 0.475000 0.548317
vt 0.462500 0.548317
vt 0.450000 0.548317
vt 0.437500 0.548317
vt 0.425000 0.548317
vt 0.412500 0.548317
vt 0.400000 0.548317
vt 0.387500 0.548317
vt 0.625000 0.548317
vt 0.375000 0.548317
vt 0.612500 0.548317
vt 0.600000 0.548317
vt 0.587500 0.461314
vt 0.575000 0.461314
vt 0.562500 0.461314
vt 0.550000 0.461314
vt 0.537500 0.461314
vt 0.525000 0.461314
vt 0.512500 0.461314
vt 0.500000 0.461314
vt 0.487500 0.461314
vt 0.475000 0.461314
vt 0.462500 0.461314
vt 0.450000 0.461314
vt 0.437500 0.461314
vt 0.425000 0.461314
vt 0.412500 0.461314
vt 0.400000 0.461314
vt 0.387500 0.461314
vt 0.625000 0.461314
vt 0.375000 0.461314
vt 0.612500 0.461314
vt 0.600000 0.461314
vt 0.575000 0.461314
vt 0.587500 0.461314
vt 0.587500 0.548317
vt 0.575000 0.548317
vn 0.951057 0.000000 -0.309016
vn 0.809017 0.000000 -0.587785
vn 0.809017 0.000000 -0.587785
vn 0.951057 0.000000 -0.309016
vn 0.587785 0.000000 -0.809017
vn 0.587785 0.000000 -0.809017
vn 0.309017 -0.000000 -0.951057
vn 0.309017 0.000000 -0.951057
vn -0.000000 -0.000000 -1.000000
vn -0.000000 0.000000 -1.000000
vn -0.309017 0.000000 -0.951056
vn -0.309017 0.000000 -0.951057
vn -0.587785 0.000000 -0.809017
vn -0.587785 0.000000 -0.809017
vn -0.809017 -0.000000 -0.587785
vn -0.809017 -0.000000 -0.587785
vn -0.951057 -0.000000 -0.309017
vn -0.951057 -0.000000 -0.309017
vn -1.000000 -0.000000 0.000000
vn -1.000000 -0.000000 0.000000
vn -0.951056 -0.000000 0.309017
vn -0.951056 -0.000000 0.309017
vn -0.809017 -0.000000 0.587785
vn -0.809017 -0.000000 0.587785
vn -0.587785 -0.000000 0.809017
vn -0.587785 -0.000000 0.809017
vn -0.309017 0.000000 0.951056
vn -0.309017 0.000000 0.951057
vn 0.000000 0.000000 1.000000
vn 0.000000 0.000000 1.000000
vn 0.309017 0.000000 0.951056
vn 0.309017 0.000000 0.951057
vn 0.587785 0.000000 0.809017
vn 0.558443 0.000000 0.829543
vn 0.809017 0.000000 0.587785
vn 0.829543 0.000000 0.558443
vn 0.951057 0.000000 0.309017
vn 0.951057 0.000000 0.309017
vn 1.000000 0.000000 0.000001
vn 1.000000 0.000000 0.000001
vn 0.000000 -1.000000 0.000000
vn 0.000000 -1.000000 0.000000
vn 0.000000 -1.000000 0.000000
vn 0.000000 -1.000000 0.000000
vn 0.000000 -1.000000 0.000000
vn 0.000000 -1.000000 0.000000
vn 0.000000 -1.000000 0.000000
vn 0.000000 -1.000000 0.000000
vn 0.000000 -1.000000 0.000000
vn 0.000000 -1.000000 0.000000
vn 0.000000 -1.000000 0.000000
vn 0.000000 -1.000000 0.000000
vn 0.000000 -1.000000 0.000000
vn 0.000000 -1.000000 0.000000
vn 0.000000 -1.000000 0.000000
vn 0.000000 -1.000000 0.000000
vn 0.000000 -1.000000 0.000000
vn 0.000000 -1.000000 0.000000
vn 0.000000 -1.000000 0.000000
vn 0.000000 -1.000000 0.000000
vn 0.000000 -1.000000 0.000000
vn 0.000000 1.000000 0.000000
vn 0.000000 1.000000 0.000000
vn 0.000000 1.000000 -0.000000
vn 0.000000 1.000000 0.000000
vn 0.000000 1.000000 0.000000
vn 0.000000 1.000000 0.000000
vn 0.000000 1.000000 0.000000
vn 0.000000 1.000000 0.000000
vn 0.000000 1.000000 0.000000
vn 0.000000 1.000000 0.000000
vn 0.000000 1.000000 0.000000
vn 0.000000 1.000000 0.000000
vn 0.000000 1.000000 0.000000
vn 0.000000 1.000000 0.000000
vn 0.000000 1.000000 0.000000
vn 0.000000 1.000000 -0.000000
vn 0.000000 1.000000 -0.000000
vn 0.000000 1.000000 0.000000
vn 0.000000 1.000000 0.000000
vn 0.000000 1.000000 0.000000
vn 0.000000 1.000000 0.000000
vn 0.556877 0.000000 0.830595
vn 0.830595 0.000000 0.556877
vn 0.809017 -0.000000 0.587785
vn 0.587785 0.000000 0.809017
vn 0.309017 0.000000 0.951057
vn 0.309017 0.000000 0.951057
vn 0.000000 -0.000000 1.000000
vn 0.000000 -0.000000 1.000000
vn -0.309017 -0.000000 0.951057
vn -0.309017 -0.000000 0.951057
vn -0.587785 0.000000 0.809017
vn -0.587785 0.000000 0.809017
vn -0.809017 0.000000 0.587785
vn -0.809017 0.000000 0.587785
vn -0.951057 0.000000 0.309017
vn -0.951056 0.000000 0.309017
vn -1.000000 0.000000 0.000000
vn -1.000000 0.000000 0.000000
vn -0.951057 0.000000 -0.309017
vn -0.951057 0.000000 -0.309017
vn -0.809017 0.000000 -0.587785
vn -0.809017 0.000000 -0.587785
vn -0.587785 0.000000 -0.809017
vn -0.587785 0.000000 -0.809017
vn -0.309017 0.000000 -0.951057
vn -0.309017 0.000000 -0.951056
vn -0.000000 0.000000 -1.000000
vn -0.000000 0.000000 -1.000000
vn 0.309017 0.000000 -0.951057
vn 0.309017 -0.000000 -0.951057
vn 0.587785 -0.000000 -0.809017
vn 0.587785 -0.000000 -0.809017
vn 0.809017 -0.000000 -0.587785
vn 0.809017 -0.000000 -0.587785
vn 0.951057 -0.000000 -0.309016
vn 0.951057 -0.000000 -0.309016
vn 1.000000 -0.000000 0.000001
vn 1.000000 -0.000000 0.000001
vn 0.951057 0.000000 0.309017
vn 0.951057 -0.000000 0.309017
vn 0.707107 0.000000 0.707107
vn 0.707107 0.000000 0.707107
vn 0.707107 0.000000 0.707107
vn 0.707107 0.000000 0.707107
vn 0.063163 0.996002 0.063163
vn 0.063163 0.996002 0.063163
vn 0.063163 0.996002 0.063163
vn 0.063163 0.996002 0.063163
vn -0.616821 0.000000 0.787104
vn -0.616821 0.000000 0.787104
vn -0.616821 0.000000 0.787104
vn -0.616821 0.000000 0.787104
vn 0.063163 -0.996002 0.063163
vn 0.063163 -0.996002 0.063163
vn 0.063163 -0.996002 0.063163
vn 0.063163 -0.996002 0.063163
vn 0.787104 0.000000 -0.616821
vn 0.787104 0.000000 -0.616821
vn 0.787104 0.000000 -0.616821
vn 0.787104 0.000000 -0.616821
s 1
g pCylinder1
usemtl initialShadingGroup
f 1/21/1 2/22/2 79/122/3 80/124/4
f 2/22/2 3/23/5 78/121/6 79/122/3
f 3/23/5 4/24/7 77/120/8 78/121/6
f 4/24/7 5/25/9 76/119/10 77/120/8
f 5/25/9 6/26/11 75/118/12 76/119/10
f 6/26/11 7/27/13 74/117/14 75/118/12
f 7/27/13 8/28/15 73/116/16 74/117/14
f 8/28/15 9/29/17 72/115/18 73/116/16
f 9/29/17 10/30/19 71/114/20 72/115/18
f 10/30/19 11/31/21 70/113/22 71/114/20
f 11/31/21 12/32/23 69/112/24 70/113/22
f 12/32/23 13/33/25 68/111/26 69/112/24
f 13/33/25 14/34/27 67/110/28 68/111/26
f 14/34/27 15/35/29 66/109/30 67/110/28
f 15/35/29 16/36/31 65/108/32 66/109/30
f 16/36/31 17/37/33 64/107/34 65/108/32
f 17/37/33 18/38/35 63/106/36 64/107/34
f 18/38/35 19/39/37 82/126/38 63/106/36
f 19/39/37 20/40/39 81/125/40 82/126/38
f 20/40/39 1/41/1 80/123/4 81/125/40
s 2
f 2/2/41 1/1/42 41/83/43
f 3/3/44 2/2/41 41/83/43
f 4/4/45 3/3/44 41/83/43
f 5/5/46 4/4/45 41/83/43
f 6/6/47 5/5/46 41/83/43
f 7/7/48 6/6/47 41/83/43
f 8/8/49 7/7/48 41/83/43
f 9/9/50 8/8/49 41/83/43
f 10/10/51 9/9/50 41/83/43
f 11/11/52 10/10/51 41/83/43
f 12/12/53 11/11/52 41/83/43
f 13/13/54 12/12/53 41/83/43
f 14/14/55 13/13/54 41/83/43
f 15/15/56 14/14/55 41/83/43
f 16/16/57 15/15/56 41/83/43
f 17/17/58 16/16/57 41/83/43
f 18/18/59 17/17/58 41/83/43
f 19/19/60 18/18/59 41/83/43
f 20/20/61 19/19/60 41/83/43
f 1/1/42 20/20/61 41/83/43
s 3
f 21/81/62 22/80/63 42/84/64
f 22/80/63 23/79/65 42/84/64
f 23/79/65 24/78/66 42/84/64
f 24/78/66 25/77/67 42/84/64
f 25/77/67 26/76/68 42/84/64
f 26/76/68 27/75/69 42/84/64
f 27/75/69 28/74/70 42/84/64
f 28/74/70 29/73/71 42/84/64
f 29/73/71 30/72/72 42/84/64
f 30/72/72 31/71/73 42/84/64
f 31/71/73 32/70/74 42/84/64
f 32/70/74 33/69/75 42/84/64
f 33/69/75 34/68/76 42/84/64
f 34/68/76 35/67/77 42/84/64
f 35/67/77 36/66/78 42/84/64
f 36/66/78 37/65/79 42/84/64
f 37/65/79 38/64/80 42/84/64
f 38/64/80 39/63/81 42/84/64
f 39/63/81 40/82/82 42/84/64
f 40/82/82 21/81/62 42/84/64
s 1
f 44/86/83 43/85/84 38/59/85 37/58/86
f 45/87/87 44/86/83 37/58/86 36/57/88
f 46/88/89 45/87/87 36/57/88 35/56/90
f 47/89/91 46/88/89 35/56/90 34/55/92
f 48/90/93 47/89/91 34/55/92 33/54/94
f 49/91/95 48/90/93 33/54/94 32/53/96
f 50/92/97 49/91/95 32/53/96 31/52/98
f 51/93/99 50/92/97 31/52/98 30/51/100
f 52/94/101 51/93/99 30/51/100 29/50/102
f 53/95/103 52/94/101 29/50/102 28/49/104
f 54/96/105 53/95/103 28/49/104 27/48/106
f 55/97/107 54/96/105 27/48/106 26/47/108
f 56/98/109 55/97/107 26/47/108 25/46/110
f 57/99/111 56/98/109 25/46/110 24/45/112
f 58/100/113 57/99/111 24/45/112 23/44/114
f 59/101/115 58/100/113 23/44/114 22/43/116
f 60/103/117 59/101/115 22/43/116 21/42/118
f 61/104/119 60/102/117 21/62/118 40/61/120
f 62/105/121 61/104/119 40/61/120 39/60/122
f 43/85/84 62/105/121 39/60/122 38/59/85
s off
f 84/127/123 83/128/124 85/129/125 86/130/126
s 1
f 65/108/32 64/107/34 44/86/83 45/87/87
f 66/109/30 65/108/32 45/87/87 46/88/89
f 67/110/28 66/109/30 46/88/89 47/89/91
f 68/111/26 67/110/28 47/89/91 48/90/93
f 69/112/24 68/111/26 48/90/93 49/91/95
f 70/113/22 69/112/24 49/91/95 50/92/97
f 71/114/20 70/113/22 50/92/97 51/93/99
f 72/115/18 71/114/20 51/93/99 52/94/101
f 73/116/16 72/115/18 52/94/101 53/95/103
f 74/117/14 73/116/16 53/95/103 54/96/105
f 75/118/12 74/117/14 54/96/105 55/97/107
f 76/119/10 75/118/12 55/97/107 56/98/109
f 77/120/8 76/119/10 56/98/109 57/99/111
f 78/121/6 77/120/8 57/99/111 58/100/113
f 79/122/3 78/121/6 58/100/113 59/101/115
f 80/124/4 79/122/3 59/101/115 60/103/117
f 81/125/40 80/123/4 60/102/117 61/104/119
f 82/126/38 81/125/40 61/104/119 62/105/121
f 63/106/36 82/126/38 62/105/121 43/85/84
s off
f 64/107/127 63/106/128 83/128/129 84/127/130
f 63/106/131 43/85/132 85/129/133 83/128/134
f 43/85/135 44/86/136 86/130/137 85/129/138
f 44/86/139 64/107/140 84/127/141 86/130/142
g default
v 1.298754 2.632569 1.606883
v 1.593896 2.632569 1.310267
v 1.298754 2.982660 1.606883
v 1.593896 2.982660 1.310267
v 1.002139 2.982660 1.311741
v 1.297281 2.982660 1.015125
v 1.002139 2.632569 1.311741
v 1.297281 2.632569 1.015125
v 2.750890 2.699742 2.871707
v 2.932772 2.699742 2.688916
v 2.932772 2.915487 2.688916
v 2.750890 2.915487 2.871707
vt 0.375000 0.000000
vt 0.625000 0.000000
vt 0.375000 0.250000
vt 0.625000 0.250000
vt 0.375000 0.500000
vt 0.625000 0.500000
vt 0.375000 0.750000
vt 0.625000 0.750000
vt 0.375000 1.000000
vt 0.625000 1.000000
vt 0.875000 0.000000
vt 0.875000 0.250000
vt 0.125000 0.000000
vt 0.125000 0.250000
vt 0.375000 0.000000
vt 0.625000 0.000000
vt 0.625000 0.250000
vt 0.375000 0.250000
vn 0.708866 0.000000 0.705344
vn 0.708866 0.000000 0.705344
vn 0.708866 0.000000 0.705344
vn 0.708866 0.000000 0.705344
vn 0.019333 0.999628 0.019237
vn 0.019468 0.999623 0.019371
vn 0.000000 1.000000 0.000000
vn 0.000000 1.000000 0.000000
vn -0.708865 0.000000 -0.705344
vn -0.708865 0.000000 -0.705344
vn -0.708865 0.000000 -0.705344
vn -0.708865 0.000000 -0.705344
vn 0.000000 -1.000000 0.000000
vn 0.000000 -1.000000 0.000000
vn 0.019468 -0.999623 0.019371
vn 0.019333 -0.999628 0.019237
vn 0.714788 0.000000 -0.699342
vn 0.705344 0.000000 -0.708866
vn 0.705344 0.000000 -0.708866
vn 0.714788 0.000000 -0.699342
vn -0.705344 0.000000 0.708866
vn -0.667554 0.000000 0.744561
vn -0.667554 0.000000 0.744561
vn -0.705344 0.000000 0.708866
vn 0.024766 -0.999389 0.024643
vn 0.024766 -0.999389 0.024643
vn 0.717379 0.000000 -0.696683
vn 0.717379 0.000000 -0.696683
vn 0.024766 0.999389 0.024643
vn 0.024766 0.999389 0.024643
vn -0.656799 0.000000 0.754066
vn -0.656799 0.000000 0.754066
s off
g pCube1
usemtl initialShadingGroup
f 95/145/143 96/146/144 97/147/145 98/148/146
s 1
f 89/133/147 90/134/148 92/136/149 91/135/150
s off
f 91/135/151 92/136/152 94/138/153 93/137/154
s 2
f 93/137/155 94/138/156 88/140/157 87/139/158
s 3
f 88/132/159 94/141/160 92/142/161 90/134/162
s 4
f 93/143/163 87/131/164 89/133/165 91/144/166
s 2
f 87/131/158 88/132/157 96/146/167 95/145/168
s 3
f 88/132/159 90/134/162 97/147/169 96/146/170
s 1
f 90/134/148 89/133/147 98/148/171 97/147/172
s 4
f 89/133/165 87/131/164 95/145/173 98/148/174
